<?xml version="1.0" encoding="UTF-8" standalone="no"?><!--  ~ Copyright (c) 2008-2013 Ivan Khalopik.  ~ All rights reserved.  --><svg xmlns="http://www.w3.org/2000/svg" height="100" width="100" version="1.1">  <title>Orc Race Icon</title>  <desc>Orc Race Icon</desc>  <g>    <path fill="#333"          d="m 42,5             c -17,4 -37,8 -37,34             s 20,30 37,34             c -3,-3 -6,-12 -6,-23             h 10             l -1,45             h 10             l -1,-45             h 10             c 0,11 -3,20 -6,23               17,-4 37,-8 37,-34             s -20,-30 -37,-34             c 3,3 6,12 6,23             h -10             l 1,-23             h -10             l 1,23             h -10             c 0,-11 3,-20 6,-23             z             m -13,15             c -4,11 -4,27 0,38               -2,0 -14,-4 -14,-19             s 12,-19 14,-19             z             m 42,0             c 2,0 14,4 14,19             s -12,19 -14,19             c 4,-11 4,-27 0,-38             z             m -34,17               8,0               0,4               -8,0             l -2-2             z             m 18,0               8,0             l 2,2               -2,2             h -8             z"/>  </g></svg>