<?xml version="1.0" encoding="UTF-8" standalone="no"?>
<!--
  ~ Copyright (c) 2008-2013 Ivan Khalopik.
  ~ All rights reserved.
  -->

<svg xmlns="http://www.w3.org/2000/svg" height="100" width="100" version="1.1">

  <path fill="none"
        d="m80,100,0,-100m-60,0,0,100m-20-20,100,0m-100-45,100,0m-100,30,100,0m-100-15,100,0m-50-50,0,100"/>

  <path stroke="#000" fill="#fce0ce"
        d="m50,5c20,0,30,20,30,35v25l-20,30h-20l-20-30v-25c0-15,10-35,30-35z"/>

  <path stroke="#000" fill="#ffffff"
        d="m30,45,10,0,5,5-5,5-10,0-5-5z"/>

  <path stroke="#000" fill="#ffffff"
        d="m55,50,5-5,10,0,5,5-5,5-10,0z"/>

  <path stroke="#000" fill="none"
        d="m80,65,5-5,5-25-10,5z"/>

  <path stroke="#000" fill="none"
        d="m20,40-10-5,5,25,5,5z"/>

  <path stroke="#000" fill="#ffffff"
        d="m35,75,30,0-15,8z"/>

  <path stroke="#000" fill="none"
        d="m50,55-5,9,6,3"/>

  <path stroke="#000" fill="none"
        d="m25,38,20,4"/>

  <path stroke="#000" fill="none"
        d="m55,42,20,-4"/>

</svg>

