<?xml version="1.0" encoding="UTF-8" standalone="no"?>
<!--
  ~ Copyright (c) 2008-2013 Ivan Khalopik.
  ~ All rights reserved.
  -->

<svg xmlns="http://www.w3.org/2000/svg" height="64px" width="64px" version="1.1">

  <path stroke="#000" fill="#000"
        d="m32,10c-1,0-2,1.5-1,4.5l1,3,1-3c1-3,0-4.5-1-4.5zm-10.1,1.1c-1.2,0.2-2.1,2.1,0.1,4.4l2,2v-3c0-2.62-1.14-3.53-2.09-3.38zm19.8,0c-0.9,0.2-1.7,1.1-1.7,3.4v3l2-2c2.5-2.5,1.09-4.61-0.312-4.38zm-27.4,6c-2.2,0-2.8,3.4,1.7,3.4h3l-2-2c-1-1-1.94-1.38-2.69-1.38zm35.4,0c-0.8,0-1.7,0.4-2.7,1.4l-2,2h3c4.5,0,3.94-3.38,1.69-3.38z"/>
</svg>

