<?xml version="1.0" encoding="UTF-8" standalone="no"?>
<svg xmlns="http://www.w3.org/2000/svg" version="1.1" width="160" height="120">
	<title>Unknown Image</title>
	<desc>Unknown Image</desc>
	<path fill="#333"
		  stroke="none"
		  d="m 80.000002,24.244922
		  c 2,10 10,20.000002 15,25.000002
		  l -10,-5
		  0,20
		  c 0,15 14.999998,49.999996 29.999998,44.999996
		  20,-9.999996 30,-24.999996 30,-44.999996
		  0,-15 -10,-30.000002 -25,-40.000002
		  l -5,10
		  c 2,-10 2,-20 -5,-30.0000003
		  30,15.0000003 45,35.0000003 45,60.0000023
		  0,30 -25,49.999996 -40,54.999996
		  -15,5 -34.999998,-15 -34.999998,-54.999996
		  0,39.999996 -20,59.999996 -35,54.999996
		  -15,-5 -40.0000003,-24.999996 -40.0000003,-54.999996
		  0,-25.000002 14.9999993,-45.000002 45.0000003,-60.0000023
		  -7,10.0000003 -7,20.0000003 -5,30.0000003
		  l -5,-10
		  c -15.000001,10 -25.000001,25.000002 -25.000001,40.000002
		  0,20 10,35 30.000001,44.999996
		  15,5 30,-29.999996 30,-44.999996
		  l 0,-20
		  -10,5
		  c 5,-5 13,-15.000002 15,-25.000002
		  z"/>
</svg>
