<?xml version="1.0" encoding="UTF-8" standalone="no"?>
<svg xmlns="http://www.w3.org/2000/svg" height="400" width="400" version="1.1">

	<!-- NOTE: path should be filled to be able to process HTML events -->
	<path stroke="#333" fill="transparent"
		  d="m160,80,80,0,40,40-40,40-80,0-40-40z"/>
	<path stroke="#333" fill="transparent"
		  d="m160,160,80,0,40,40-40,40-80,0-40-40z"/>
	<path stroke="#333" fill="transparent"
		  d="m160,240,80,0,40,40-40,40-80,0-40-40z"/>
	<path stroke="#333" fill="transparent"
		  d="m280,120,80,0,40,40-40,40-80,0-40-40z"/>
	<path stroke="#333" fill="transparent"
		  d="m280,200,80,0,40,40-40,40-80,0-40-40z"/>
	<path stroke="#333" fill="transparent"
		  d="m40,120,80,0,40,40-40,40-80,0-40-40z"/>
	<path stroke="#333" fill="transparent"
		  d="m40,200,80,0,40,40-40,40-80,0-40-40z"/>
</svg>

