<?xml version="1.0" encoding="UTF-8" standalone="no"?>
<svg xmlns="http://www.w3.org/2000/svg" height="64" width="64" version="1.1">

	<title>Health Icon</title>
	<desc>Health Icon</desc>

	<path stroke="#333" fill="none"
		  d="m32,28c-2.4-1.1-1.1-4.7-0.7-6.8,1.7-5.6,5.4-11.6,11.5-13,5.11-1.07,10.9,1.3,13.2,6.05,3.11,5.92,1.98,13,0.0906,19.1-3.01,9.65-10.1,18.1-19.5,22-2.6,1.3-5.3,2.1-7.9,0.2-9.1-4.2-17.5-11.2-21.3-20.7-2.67-6.4-1.55-14.8,4.11-19.2,4.54-3.45,11.6-3.76,15.9,0.21,2.98,2.63,5.49,6.23,5.9,10.3,0,0.7-0.3,1.9-1.3,1.8z"/>

</svg>
