<?xml version="1.0" encoding="UTF-8"?>
<svg xmlns="http://www.w3.org/2000/svg" version="1.1" width="150" height="115">
	<title>Mutabra Logo</title>
	<desc>Mutabra Logo</desc>

	<path stroke="none"
		  fill="#333"
		  d="
		  m 75,95
		  c -2,-10 -10,-20 -15,-25
		  l 10,5
		  0,-20
		  c 0,-15 -15,-50 -30,-45
		  -20,10 -30,25 -30,45
		  0,15 10,30 25,40
		  l 5,-10
		  c -2,10 -2,20 5,30
		  -30,-15 -45,-35 -45,-60
		  0,-30 25,-50 40,-55
		  15,-5 35,15 35,55

		  0,-40 20,-60 35,-55
		  15,5 40,25 40,55
		  0,25 -15,45 -45,60
		  7,-10 7,-20 5,-30
		  l 5,10
		  c 15,-10 25,-25 25,-40
		  0,-20 -10,-35 -30,-45
		  -15,-5 -30,30 -30,45
		  l 0,20
		  10,-5
		  c -5,5 -13,15 -15,25
		  z"/>


	<!-- c x1,y1 x2,y2 x,y => c x-x2,y2-y x-x1,y1-y x,-y -->

</svg>
