<?xml version="1.0" encoding="UTF-8" standalone="no"?>
<!--
  ~ Copyright (c) 2008-2013 Ivan Khalopik.
  ~ All rights reserved.
  -->

<svg xmlns="http://www.w3.org/2000/svg" height="100" width="100" version="1.1">
  <title>Mutabra Logo</title>
  <desc>Mutabra Logo</desc>

  <g>
    <path fill="#333"
          d="m 50,75
             c -1,-7 -6,-13 -9,-16
             l 6,3
             v -12
             c 0,-10 -10,-31 -19,-28
               -13,5 -19,15 -19,28
               0,10 7,19 16,25
             l 3,-7
             c -2,6 -1,13 3,19
               -19,-10 -28,-22 -28,-37
               0,-20 16,-32 25,-35
               10,-3 22,10 22,35
               0,-25 12,-38 22,-35
               9,3 25,15 25,35
               0,15 -9,27 -28,37
               4,-6 5,-13 3,-19
             l 3,7
             c 9,-6 16,-15 16,-25
               0,-13 -6,-23 -19,-28
               -9,-3 -19,18 -19,28
             v 12
             l 6,-3
             c -3,3 -8,9 -9,16
             z"/>
  </g>
  <!-- c x1,y1 x2,y2 x,y => c x-x2,y2-y x-x1,y1-y x,-y -->
</svg>
