<?xml version="1.0" encoding="UTF-8" standalone="no"?><svg xmlns="http://www.w3.org/2000/svg" height="100" width="100" version="1.1">  <title>Flyer Race Icon</title>  <desc>Flyer Race Icon</desc>  <g>    <path fill="#333"          d="m 47,5               6,0             c 4,0 3,7 3,12             h -3             l 3,4             c 7,-1 11,-6 13,-13               17,12 23,32 26,48               -7,-12 -11,-13 -17,-4               -2,-7 -6,-7 -11,0               -2,-5 -5,-5 -5,3             l 8,40             h -40             l 8,-40             c 0,-8 -3,-8 -5,-3               -5,-7 -9,-7 -11,0               -6,-9 -10,-8 -17,4               3,-16 9,-36 26,-48               2,7 6,12 13,13             l 3,-4             h -3             c 0,-5 -1,-12 3,-12             z"/>  </g></svg>