<?xml version="1.0" encoding="UTF-8" standalone="no"?><svg xmlns="http://www.w3.org/2000/svg" height="100" width="100" version="1.1">  <title>Plunger Race</title>  <desc>Plunger Race</desc>  <g>    <path fill="#333"          d="m 53,5               0,49             c 0,5 14,8 14,3             v -14             c 0,-3 -3,-1 -5,1             l 10,-19             v 35             c 0,5 -19,3 -19,8             v 27             h -6             v -13             c 0,-5 -19,-2 -19,-7             v -37             l 10,21             c -2,-2 -5,-5 -5,-2             v 15             c 0,5 14,2 14-3             v -44             c 0,-3 -3,0 -5,2             z"/>  </g></svg>