<?xml version="1.0" encoding="UTF-8" standalone="no"?>
<svg xmlns="http://www.w3.org/2000/svg" height="100" width="100" version="1.1">
  <title>Skip Turn Card</title>
  <desc>Skip Turn Card</desc>

  <g>
    <!-- Top part -->
    <path stroke="none" fill="#333"
          d="m 12,43
             c 18,-13 18,-13 31,-31
               0,6 3,5 5,5
             l -31,31
             c 0,-2 1,-5 -5,-5
             z"/>

    <!-- Bottom Part -->
    <path stroke="none" fill="#333"
          d="m 57,88
             c 0,-6 -3,-5 -5,-5
             l 31,-31
             c 0,2 -1,5 5,5
               -18,13 -18,13 -31,31
             z"/>

    <!-- Center part -->
    <path stroke="#333" stroke-width="3" fill="none"
          d="m 20,45
             c 5,5 15,5 24,5
               3,0 6,3 6,6
               0,9 0,19 5,24
             l 25,-25
             c -5,-5 -15,-5 -24,-5
               -3,0 -6,-3 -6,-6
               0,-9 0,-19 -5,-24
             z"/>
  </g>
</svg>
