<?xml version="1.0" encoding="UTF-8" standalone="no"?>
<svg xmlns="http://www.w3.org/2000/svg" height="620" width="699" version="1.1">

 <g transform="translate(-22.032285,-33.910741)">

  <path d="m676,186c-19.5-30.6-2.78-55.6-22.3-69.5s-44.5-41.7-111-52.9c-66.8-11.1-278-26.9-342-15.7-99.7,65.7-56.1,82.5-92.3,119-36.2,36.2-55.6,44.5-69.5,80.7s-2.78,69.5,8.35,86.2,41.7,30.6,50.1,44.5c8.35,13.9,2.78,44.5,22.3,64s61.2,75.1,192,125c131,50.1,250,91.8,309,69.5,58.4-22.3,75.1-58.4,72.3-91.8-2.78-33.4-16.7-125-16.7-125,5.56-100,35.6-118,34.2-152-1.42-33.6-8.82-65.5-38-88" stroke="#000" stroke-linecap="butt" stroke-miterlimit="4" stroke-dasharray="none" stroke-width="21" fill="none"/>

  <path d="m121,296c34.6-0.527,37.6-29.5,37-42.6" stroke="#000" stroke-linecap="round" stroke-miterlimit="4" stroke-dasharray="none" stroke-width="18" fill="none"/>

  <path d="m149,296c41.2,83.5,81.2,158,184,189,103,30.9,223,12.6,255,2.29s44.6-41.2,44.6-41.2c9.02-18.8,6.45-39.6,2.29-99.6-3.41-49.2-8.22-37.3-18.3-69.8" stroke="#000" stroke-linecap="round" stroke-miterlimit="4" stroke-dasharray="none" stroke-width="15" fill="none"/>

  <path d="m152,267c138,64.9,206,102,333,97.3,134-4.72,120-57,134-83.5" stroke="#000" stroke-linecap="butt" stroke-miterlimit="4" stroke-dasharray="none" stroke-width="15" fill="none"/>

  <path d="m235,311c3.43,53.8,5.72,75.5-9.15,102" stroke="#000" stroke-linecap="round" stroke-miterlimit="4" stroke-dasharray="none" stroke-width="15" fill="none"/>

  <path d="m338,346c-5.72,61.8-13.7,87-32,126" stroke="#000" stroke-linecap="butt" stroke-miterlimit="4" stroke-dasharray="none" stroke-width="15" fill="none"/>

  <path d="m423,363c1.14,25.2,1.14,40.1,1.14,59.5" stroke="#000" stroke-linecap="round" stroke-miterlimit="4" stroke-dasharray="none" stroke-width="12" fill="none"/>

  <path d="m409,428,1.15,62.9" stroke="#000" stroke-linecap="round" stroke-miterlimit="4" stroke-dasharray="none" stroke-width="12" fill="none"/>

  <path d="m484,367c5.72,18.3,5.72,40.1,5.72,56.1s-8.01,17.2-10.3,35.5-3.43,42.3-3.43,42.3" stroke="#000" stroke-linecap="butt" stroke-miterlimit="4" stroke-dasharray="none" stroke-width="12" fill="none"/>

  <path d="m549,360c4.58,18.3,10.3,32,12.6,49.2" stroke="#000" stroke-linecap="round" stroke-miterlimit="4" stroke-dasharray="none" stroke-width="15" fill="none"/>

  <path d="m540,441c-8.01,26.3-12.6,40.1-19.5,51.5" stroke="#000" stroke-linecap="round" stroke-miterlimit="4" stroke-dasharray="none" stroke-width="15" fill="none"/>

  <path d="m593,341c10.3,24,4.58,64.1,0,75.5s-20.6,49.2-35.5,75.5" stroke="#000" stroke-linecap="round" stroke-miterlimit="4" stroke-dasharray="none" stroke-width="15" fill="none"/>

  <path d="m616,304c-1.48,55.2,6.84,70.6,5.72,99.6-1.18,30.3-20.6,61.8-29.8,75.5" stroke="#000" stroke-linecap="round" stroke-miterlimit="4" stroke-dasharray="none" stroke-width="15" fill="none"/>

  <path fill="#000" d="m180,344c92.7,46.9,120,64.1,188,82.4,67.5,18.3,70.9,24,145,24,74.4,0,96.1-13.7,110-20.6,13.7-6.87,14.9-14.9,14.9-14.9l-0.714-40.9c-34.3,16.2-51.7,21.9-97.3,25.9-47,4.08-76.7,2.99-119,2.79-41.3-0.201-94.7-15.2-135-31.2-40.1-16-81.8-38.3-113-48.1-26.2-8.09,16.5,24,6.87,20.6h0.0003,0.0006z"/>

  <path d="m108,325c-23.4-32.3-13.4-52.4-11.1-59,2.23-6.68,5.57-22.3,30.1-34.5,28.1-14,40.1-2.23,65.7,8.91s40.1,15.6,64.6,11.1c24.5-4.46,41.2-24.5,41.2-24.5" stroke="#000" stroke-linecap="round" stroke-miterlimit="4" stroke-dasharray="none" stroke-width="15" fill="none"/>

  <path stroke-linejoin="round" d="m556,259c18.9,8.91,36.8,6.68,36.8,6.68-1.58-12.7,5.05-17.5,16.7-17.8,19.1-0.593,32.3-5.57,43.4,7.8" stroke="#000" stroke-linecap="round" stroke-miterlimit="4" stroke-dasharray="none" stroke-width="15" fill="none"/>

  <path d="m383,284c-21.2,0-30.1,5.57-31.2,12.3-1.11,6.68-2.23,16.7,1.11,22.3,3.34,5.57,4.46,3.34,11.1,6.68" stroke="#000" stroke-linecap="round" stroke-miterlimit="4" stroke-dasharray="none" stroke-width="15" fill="none"/>

  <path stroke-linejoin="round" d="m386,316c1.11-5.57,0-8.91,7.8-7.8s16.7,0,27.9,4.46" stroke="#000" stroke-linecap="round" stroke-miterlimit="4" stroke-dasharray="none" stroke-width="18" fill="none"/>

  <path stroke-linejoin="round" d="m457,337c11.1,4.46,18.9,4.46,23.4,1.11,4.46-3.34,25.6-24.5,29-30.1,3.34-5.57,6.68-13.4-1.11-21.2-7.8-7.8-16.7-6.68-24.5-17.8s-8.91-29-6.68-40.1,7.8-27.9,24.5-34.5c16.7-6.68,49-8.91,63.5-6.68s25.6,18.9,0,18.9-44.6,0-60.2,5.57-42.3,6.68-55.7,2.23" stroke="#000" stroke-linecap="round" stroke-miterlimit="4" stroke-dasharray="none" stroke-width="15" fill="none"/>

  <path d="m524,303c-7.8-4.46-8.26-8.26-8.26-8.26" stroke="#000" stroke-linecap="round" stroke-miterlimit="4" stroke-dasharray="none" stroke-width="18" fill="none"/>

  <path stroke-linejoin="round" d="m521,199c-23.4,6.68-37.9,17.8-37.9,17.8" stroke="#000" stroke-linecap="round" stroke-miterlimit="4" stroke-dasharray="none" stroke-width="15" fill="none"/>

  <path d="m271,206c56.4-7.56,77.2,12.1,95.8,20.1,9.38,4.03,25.9-16.2,24.5-17.8-19.6-24.1-48.7-48.2-115-36.7-14.1,2.45-20.9,6.64-26.1,10.2-11.7,7.99-20.7,15.9-19.2,23,1.04,5.05,5.39,7.4,12.6,5.88,11.9-2.52,26.4-4,27-4.66z" stroke="#000" stroke-linecap="butt" stroke-miterlimit="4" stroke-dasharray="none" stroke-width="15" fill="none"/>

  <path d="m265,192c30.7-5.63,30.6-5.32,45.9-5.21" stroke="#000" stroke-linecap="round" stroke-miterlimit="4" stroke-dasharray="none" stroke-width="24" fill="none"/>

  <path stroke-linejoin="round" d="m183,142c32.1-24.9,66.7-49.1,89.6-58.2,22.9-9.16,37.3-13.1,56.3-13.7,19-0.654,30.1-3.27,67.4,1.31s56.9,9.16,90.3,9.81c33.4,0.654,41.9-2.62,55-5.89" stroke="#000" stroke-linecap="round" stroke-miterlimit="4" stroke-dasharray="none" stroke-width="6" fill="none"/>

  <path stroke-linejoin="round" d="m201,157c36-31.4,53.8-46,94.2-57.6,32.1-9.16,56.2-8.95,87-8.51,32.1,0.459,24.2,12.4,85.7,11.8,61.5-0.654,73.3-5.96,95.5-7.85,8.41-0.717,13.1,4.09,19,11.8" stroke="#000" stroke-linecap="round" stroke-miterlimit="4" stroke-dasharray="none" stroke-width="6" fill="none"/>

  <path stroke-linejoin="round" d="m222,165c20.3-23.6,40.6-47.6,108-51,25.5-1.31,39.9-3.27,54.3,4.58" stroke="#000" stroke-linecap="round" stroke-miterlimit="4" stroke-dasharray="none" stroke-width="6" fill="none"/>

  <path stroke-linejoin="round" d="m590,167c-2.62-31.4-7.25-28.7-34-40.6-23.6-10.5-53,1.31-80.5,3.27" stroke="#000" stroke-linecap="round" stroke-miterlimit="4" stroke-dasharray="none" stroke-width="6" fill="none"/>

  <path stroke-linejoin="round" d="m387,162c-1.31-22.2,1.96-24.9-15.7-40.6" stroke="#000" stroke-linecap="round" stroke-miterlimit="4" stroke-dasharray="none" stroke-width="6" fill="none"/>

  <path stroke-linejoin="round" d="m480,185c-1.31-26.2-1.31-36,9.81-41.2" stroke="#000" stroke-linecap="round" stroke-miterlimit="4" stroke-dasharray="none" stroke-width="6" fill="none"/>

  <path stroke-linejoin="round" d="m283,294c46.5-1.31,59.5,3.27,56.3-15.7" stroke="#000" stroke-linecap="round" stroke-miterlimit="4" stroke-dasharray="none" stroke-width="6" fill="none"/>

  <path stroke-linejoin="round" d="m569,321c-7.85-8.51-51.7-21.6-55-30.1" stroke="#000" stroke-linecap="round" stroke-miterlimit="4" stroke-dasharray="none" stroke-width="6" fill="none"/>

  <path stroke-linejoin="round" d="m654,325c30.1-15,45.8-16.4,45.8-56.9,0-40.6-9.81-34-26.2-47.1s3.27-15.7-70-17" stroke="#000" stroke-linecap="round" stroke-miterlimit="4" stroke-dasharray="none" stroke-width="6" fill="none"/>

  <path stroke-linejoin="round" d="m659,300c17.7-15.7,22.9-11.1,16.4-36-6.54-24.9,10.5-24.9-24.9-37.3" stroke="#000" stroke-linecap="round" stroke-miterlimit="4" stroke-dasharray="none" stroke-width="6" fill="none"/>

  <path stroke-linejoin="round" d="M108,345c-50.3-12-40.2-47-41.3-69-1.71-35.4,2.62-80.6,87-70.7" stroke="#000" stroke-linecap="round" stroke-miterlimit="4" stroke-dasharray="none" stroke-width="6" fill="none"/>

  <path stroke-linejoin="round" d="m146,196c-36,0-59.5-9.16-96.8,45.8" stroke="#000" stroke-linecap="round" stroke-miterlimit="4" stroke-dasharray="none" stroke-width="6" fill="none"/>

  <path stroke-linejoin="round" d="m213,197c-21.8,0.363-40.1,11-7.85,12.4" stroke="#000" stroke-linecap="round" stroke-miterlimit="4" stroke-dasharray="none" stroke-width="6" fill="none"/>

  <path stroke-linejoin="round" d="m215,217c-3.28-0.12-9.61-1.52-7.97,4.57" stroke="#000" stroke-linecap="round" stroke-miterlimit="4" stroke-dasharray="none" stroke-width="6" fill="none"/>

  <path stroke-linejoin="round" d="m187,472c56.2,31.7,87.2,54.3,192,80.1s154,20,187,20c41.2,0,34.6,1.93,64-21.9,10.4-8.41,13.4-10.8,15.1-32.1" stroke="#000" stroke-linecap="round" stroke-miterlimit="4" stroke-dasharray="none" stroke-width="6" fill="none"/>

  <path stroke-linejoin="round" d="m226,471c106,54.7,111,60.1,214,74,79.1,10.7,101,1.93,128-1.4,16.5-2.03,30.7-17.4,43.3-30" stroke="#000" stroke-linecap="round" stroke-miterlimit="4" stroke-dasharray="none" stroke-width="6" fill="none"/>

  <path stroke-linejoin="round" d="m417,527c112,0,0.699,0.698,112,0" stroke="#000" stroke-linecap="round" stroke-miterlimit="4" stroke-dasharray="none" stroke-width="6" fill="none"/>

 </g>

</svg>

