<?xml version="1.0" encoding="UTF-8" standalone="no"?>
<svg xmlns="http://www.w3.org/2000/svg" height="100" width="100" version="1.1">
  <title>Skip Turn Card</title>
  <desc>Skip Turn Card</desc>

  <!-- Top part -->
  <path stroke="none" fill="#333"
        d="m12,43c18-13,18-13,31-31,0,6,3,5,5,5l-31,31c0-2,1-5-5-5z"/>

  <!-- Bottom Part -->
  <path stroke="none" fill="#333"
        d="m57,88c0-6-3-5-5-5l31-31c0,2-1,5,5,5-18,13-18,13-31,31z"/>

  <!-- Center part -->
  <path stroke="#333" stroke-width="3" fill="none"
        d="m20,45c5,5,15,5,24,5,3,0,6,3,6,6,0,9,0,19,5,24l25-25c-5-5-15-5-24-5-3,0-6-3-6-6,0-9,0-19-5-24z"/>
</svg>
