<?xml version="1.0" encoding="UTF-8" standalone="no"?>
<svg xmlns="http://www.w3.org/2000/svg" height="100" width="100" version="1.1">
  <title>Stop Time Card</title>
  <desc>Stop Time Card</desc>

  <!-- Top part -->
  <path stroke="none" fill="#333"
        d="m25,10c25,3,25,3,50,0-4,5-3,8,0,10h-50c3-2,4-5,0-10z"/>

  <!-- Bottom part -->
  <path stroke="none" fill="#333"
        d="m25,90c4-5,4-8,0-10h50c-4,2-4,5,0,10-25-3-25-3-50,0z"/>

  <!-- Center part -->
  <path stroke="#333" stroke-width="3" fill="none"
        d="m30,20c0,10,10,20,15,25,3,3,3,7,0,10-5,5-15,15-15,25h40c0-10-10-20-15-25-3-3-3-7,0-10,5-5,15-15,15-25h-40"/>

</svg>

