<svg xmlns="http://www.w3.org/2000/svg" height="100" width="100" version="1.1">
    <g>
        <path stroke="#000" fill="none"
              d="m34,53c0.3733-0.56671,0.89522,0.53835,0.3392,0.79444-0.56225,0.54759-1.5271,0.12847-1.7629-0.55271-0.42466-0.98816,0.41572-2.1139,1.4237-2.2417,1.3678-0.24181,2.6215,1.0834,2.5181,2.4208-0.04706,1.5397-1.5909,2.7602-3.0953,2.5848-1.7382-0.13285-3.0974-1.8629-2.928-3.5769,0.12046-1.9571,2.0018-3.5396,3.9386-3.4395,2.1225,0.03586,3.9508,1.9167,4.0665,4.0109,0.18917,2.2029-1.4501,4.3091-3.5621,4.8452-2.0208,0.56914-4.2887-0.35377-5.4596-2.0702-1.2437-1.6956-1.3022-4.1131-0.211-5.8964,0.977-1.661,2.804-2.786,4.733-2.878"/>
        <path stroke="#000" fill="none"
              d="m63,53c-0.3733,0.56671-0.89522-0.53835-0.3392-0.79444,0.56225-0.54759,1.5271-0.12847,1.7629,0.55271,0.42466,0.98816-0.41572,2.1139-1.4237,2.2417-1.3678,0.24181-2.6215-1.0834-2.5181-2.4208,0.04706-1.5397,1.591-2.7602,3.0953-2.5848,1.7382,0.13285,3.0974,1.8629,2.928,3.5769-0.12046,1.9571-2.0018,3.5396-3.9386,3.4395-2.1225-0.03586-3.9508-1.9167-4.0665-4.0109-0.18917-2.2029,1.4501-4.3091,3.5621-4.8452,2.0208-0.56914,4.2887,0.35377,5.4596,2.0703,1.2437,1.6956,1.3022,4.1131,0.21099,5.8964-0.977,1.661-2.804,2.786-4.733,2.878"/>
    </g>
</svg>
