<!-- Created with Inkscape (http://www.inkscape.org/) -->
<svg xmlns:rdf="http://www.w3.org/1999/02/22-rdf-syntax-ns#" xmlns="http://www.w3.org/2000/svg" height="100" width="100" version="1.1" xmlns:cc="http://creativecommons.org/ns#" xmlns:dc="http://purl.org/dc/elements/1.1/">
 <metadata>
  <rdf:RDF>
   <cc:Work rdf:about="">
    <dc:format>image/svg+xml</dc:format>
    <dc:type rdf:resource="http://purl.org/dc/dcmitype/StillImage"/>
    <dc:title/>
   </cc:Work>
  </rdf:RDF>
 </metadata>
 <path stroke-linejoin="miter" d="M18,40c-0.78-15,17-30,32-30s32.564,15,32,30l-7,35-25,15-25-15z" stroke="#e40000" stroke-linecap="butt" stroke-width="1px" fill="none"/>
 <path stroke-linejoin="miter" d="m40,40c0.25069,0.25069-0.21424,0.46161-0.41667,0.41667-0.548-0.122-0.636-0.825-0.416-1.25,0.393-0.762,1.416-0.851,2.083-0.417,0.97955,0.63659,1.0705,2.0153,0.41667,2.9167-0.87145,1.2014-2.6176,1.2932-3.75,0.41667-1.425-1.1031-1.5174-3.2213-0.41666-4.5833,1.3331-1.6496,3.8257-1.7423,5.4167-0.41666,1.8749,1.5623,1.9678,4.4306,0.41666,6.25-1.7908,2.1005-5.0359,2.1936-7.0833,0.41666-2.3264-2.0191-2.4196-5.6413-0.41666-7.9167,2.247-2.5526,6.2469-2.6458,8.75-0.41666,2.7789,2.4748,2.8722,6.8527,0.41666,9.5833" stroke="#000" stroke-linecap="butt" stroke-width="1px" fill="none"/>
 <path stroke-linejoin="miter" d="m60,40c-0.25069-0.25069,0.21425-0.46161,0.41667-0.41667,0.54855,0.1218,0.63673,0.82442,0.41667,1.25-0.39365,0.76126-1.4159,0.85045-2.0833,0.41666-0.97954-0.63659-1.0705-2.0153-0.41666-2.9167,0.87145-1.2013,2.6176-1.2932,3.75-0.41666,1.425,1.1031,1.5174,3.2213,0.41666,4.5833-1.3331,1.6496-3.8257,1.7423-5.4167,0.41666-1.8749-1.5623-1.9678-4.4306-0.41666-6.25,1.7909-2.1005,5.0359-2.1936,7.0833-0.41666,2.3264,2.0191,2.4196,5.6413,0.41666,7.9167-2.247,2.5526-6.2469,2.6458-8.75,0.41666-2.7789-2.4748-2.8722-6.8527-0.41666-9.5833" stroke="#000" stroke-linecap="butt" stroke-width="1px" fill="none"/>
</svg>
