<!-- Created with Inkscape (http://www.inkscape.org/) -->
<svg xmlns:rdf="http://www.w3.org/1999/02/22-rdf-syntax-ns#" xmlns="http://www.w3.org/2000/svg" height="100" width="100" version="1.1" xmlns:cc="http://creativecommons.org/ns#" xmlns:dc="http://purl.org/dc/elements/1.1/">
 <metadata>
  <rdf:RDF>
   <cc:Work rdf:about="">
    <dc:format>image/svg+xml</dc:format>
    <dc:type rdf:resource="http://purl.org/dc/dcmitype/StillImage"/>
    <dc:title/>
   </cc:Work>
  </rdf:RDF>
 </metadata>
 <g stroke="#F00" fill="none">
  <path stroke-linejoin="miter" d="M18,50c-0.514-11.67,1.381-24.753,10.263-33.162,8.229-7.5355,20.513-8.046,30.833-5.452,9.021,2.2321,16.172,9.6706,18.684,18.545,2.0292,6.7616,2.7214,13.999,2.0256,21.009-1.936,9.353-3.871,18.706-5.806,28.06-6.333,3.667-12.667,7.333-19,11h-15c-5.667-4-11.333-8-17-12-1.667-9.333-3.333-18.667-5-28z" stroke-linecap="butt" stroke-width="1px"/>
  <path stroke-linejoin="miter" d="m48,10v80" stroke-linecap="butt" stroke-width="1px"/>
  <path stroke-linejoin="miter" d="m18,53h62" stroke-linecap="butt" stroke-width="1px"/>
  <path stroke-linejoin="miter" d="m41,79h14" stroke-linecap="butt" stroke-width="1px"/>
  <path stroke-linejoin="miter" d="m34,50v6" stroke-linecap="butt" stroke-width="1px"/>
  <path stroke-linejoin="miter" d="m63,50v6" stroke-linecap="butt" stroke-width="1px"/>
  <path stroke-linejoin="miter" d="m25,45h19" stroke-linecap="butt" stroke-width="1px"/>
  <path stroke-linejoin="miter" d="m52,45h20" stroke-linecap="butt" stroke-width="1px"/>
  <path opacity="0.98999999" d="m27,50h13v8h-13v-8z"/>
  <path opacity="0.98999999" d="m57,50h13v8h-13v-8z"/>
  <path opacity="0.98999999" d="m44,59h8v12h-8v-12z"/>
  <path opacity="0.98999999" d="m15,90h68v10h-68v-10z"/>
  <path stroke-linejoin="miter" d="m18,50c-1.6667-0.66667-3.3333-1.3333-5-2-1,4-2,8-3,12,2.3333,4,4.6667,8,7,12h5c-1.3333-7.3333-2.6667-14.667-4-22z" stroke-linecap="butt" stroke-width="1px"/>
  <path stroke-linejoin="miter" d="m80,50c1.3333-0.66667,2.6667-1.3333,4-2,1,4.6667,2,9.3333,3,14-2.3333,3.3333-4.6667,6.6667-7,10-1.1497-0.2866-3.6955,0.59187-3.9142-0.47168,1.305-7.176,2.609-14.352,3.914-21.528z" stroke-linecap="butt" stroke-width="1px"/>
 </g>
</svg>
