<?xml version="1.0" encoding="UTF-8"?>
<svg xmlns="http://www.w3.org/2000/svg" height="64" width="64" version="1.1">
	<title>Orc Race Icon</title>
	<desc>Orc Race Icon</desc>
	<path stroke="none"
		  fill="#333"
		  d="m26.097,0.12522c-11.977,2.8333-25.972,5.3125-25.972,23.906s13.995,21.073,25.972,23.906c-2.29-2.547-3.697-7.843-3.697-15.812h6.4l-0.34164,31.75h2.3611,2.3611,2.3611l-0.341-31.75h6.4c0,7.9687-1.4071,13.265-3.6973,15.812,11.977-2.833,25.972-5.312,25.972-23.906,0-18.593-13.995-21.072-25.972-23.906,2.29,2.5473,3.697,8.0313,3.697,16h-6.4l0.34164-16h-2.3611-2.3611-2.3611l0.341,16h-6.4c0-7.9685,1.407-13.452,3.697-16zm-9.429,10.758c0.06918-0.0032,0.1033,0,0.1033,0-3.0761,12.315-1.1912,19.048,0,26.562-0.11806-0.13281-9.4444-2.6562-9.4444-13.281,0-12.451,8.3035-13.233,9.3411-13.281zm30.561,0s9.2311,2.1434,9.4444,13.281c0,10.625-9.3263,13.148-9.4444,13.281,1.1912-7.514,3.0761-14.248,0-26.562zm-24.829,11.642,6.4,0,0,3.2-6.4,0-1.0249-1.6939zm12.8,0,6.4,0,1.0249,1.5061-1.0249,1.6939-6.4,0z"/>
</svg>

