<svg xmlns="http://www.w3.org/2000/svg" height="100" width="100" version="1.1">
    <g stroke="#000" fill="#38101c">
        <path fill="#fff"
              d="m35,50c-4,0-6,1.1021-6,3,0,4,2,5,6,5,5,0,5-3,5-5,0-1,0-3-5-3z"/>
        <path stroke="none"
              d="m38,53a3,3,0,1,1,-6,0,3,3,0,1,1,6,0z"/>

        <path fill="#fff"
              d="m62,50c4,0,6,1,6,3,0,4-2,5-6,5-5,0-5-3-5-5,0-1,0-3,5-3z"/>
        <path stroke="none"
              d="m65,53a3,3,0,1,1,-6,0,3,3,0,1,1,6,0z"/>
    </g>
</svg>