<svg xmlns="http://www.w3.org/2000/svg" height="100" width="100" version="1.1">
    <g stroke="#000" fill="#38101c">
        <path stroke="none" fill="#fff"
              d="m38,50-9,0c-3,1-4,7,3,8h5c5-1,4-7,1-8z"/>
        <path fill="none"
              d="m38,58-9,0"/>
        <path fill="none"
              d="m27,51,1-1,11,0,1,1"/>
        <path stroke="none"
              d="m37,53a3,3,0,1,1,-6,0,3,3,0,1,1,6,0z"/>

        <path stroke="none" fill="#fff"
              d="m59,50,9,0c3,1,4,7-3,8h-4c-7-1-5-7-2-8z"/>
        <path fill="none"
              d="m59,58,9,0"/>
        <path fill="none"
              d="m57,51,1-1,11,0,1,1"/>
        <path stroke="none"
              d="m66,53a3,3,0,1,1,-6,0,3,3,0,1,1,6,0z"/>
    </g>
</svg>
