<?xml version="1.0" encoding="UTF-8" standalone="no"?>
<svg xmlns="http://www.w3.org/2000/svg" version="1.1" height="256" width="256">
	<title>All Icons</title>
	<desc>All Icons</desc>

	<!-- (x,y)=>(x+i*64, y+j*64) -->

	<!-- first row (x+i*64, y) -->
	<!-- left triangle -->
	<path stroke="none" fill="#333"
		  d="m42,44,0,-24,-21,12z"/>

	<!-- right triangle -->
	<path stroke="none" fill="#333"
		  d="m86,44,0,-24,21,12z"/>

	<!-- top triangle -->
	<path stroke="none" fill="#333"
		  d="m172,42,-24,0,12-21z"/>

	<!-- bottom triangle -->
	<path stroke="none" fill="#333"
		  d="m236,22,-24,0,12,21z"/>



	<!-- second row (x+i*64, y+64) -->
	<!-- left arrow -->
	<path stroke="none" fill="#333"
		  d="m45,70c-8,18-8,34,0,52l-25-26z"/>

	<!-- right arrow -->
	<path stroke="none" fill="#333"
		  d="m83,70c8,18,8,34,0,52l25-26z"/>

	<!-- top arrow -->
	<path stroke="none" fill="#333"
		  d="m186,109c-18-8-34-8-52,0l26-25z"/>

	<!-- bottom arrow -->
	<path stroke="none" fill="#333"
		  d="m250,83c-18,8-34,8-52,0l26,25z"/>



	<!-- third row (x+i*64, y+128) -->
	<!-- facebook -->
	<path stroke="none" fill="#333"
		  d="m32,186,0-29-7,0,0-7,7,0,0-6c0-10,8-10,15-10h7l-1,7h-6c-5,0-5,2-5,6v3h11l-1,7h-10v29z"/>

	<!-- twitter -->
	<path stroke="none" fill="#333"
		  d="m74,141c0-8,15-8,15,0v7.03h22c9,0,9,11,0,11h-22v4c0,6,3.08,10,9,10h13.3c8.7,0,8.7,13-0.3,13h-18c-10,0-19-8-19-18z"/>

	<!-- google -->
	<path stroke="none" fill="#333" fill-rule="evenodd"
		  d="
		  m167,134-4,3-4,0c1,0,4,3,4,9s-2,7-5,10-3,7,0,9c4,1,8,4,8,10s-4,11-14,11c-13,0-18-4-18-10s5-10,19-10c-3-3-4-4-2-7-7,0-14-6-14-13s7-12,14-12z
		  m-10.6,10.6c1.54,4.87,0.428,9.6-2.49,10.6-2.92,0.975-6.53-2.18-8.07-7.05s-0.428-9.6,2.49-10.6c2.92-0.999,6.53,2.14,8.06,6.99z
		  m5.6,31.4c0,4-3,7-10,7-5,0-11-3-11-7s4-7,11-7c6,0,10,3,10,7z
		  m12-39,6,0,0,6,6,0,0,6-6,0,0,6-6,0,0-6-6,0,0-6,6,0z"/>

	<!-- vkontakte -->
	<path stroke="none" fill="#333" fill-rule="evenodd"
			d="
			m217,162,10,0c8,0,8,12,0,12h-10z
			m0-19,7,0c5,0,5,9,0,9h-7z
			m-15-9,35,0c9,0,9,22,0,22,15,0,15,30,0,30h-35z"/>



	<!-- fourth row (x+i*64, y+192) -->
	<!-- blood -->
	<path stroke="none" fill="#333"
		  d="m32,198c0,25,12,30,12,40,0,6-4,12-12,12-6,0-13-7-13-15-0.2-12.2,6.6-23.3,13-37z"/>

	<!-- heart -->
	<path stroke="none" fill="#333"
		  d="m96,220c-2.4-1.1-1.1-4.7-0.7-6.8,1.7-5.6,5.4-11.6,11.5-13,5.11-1.07,10.9,1.3,13.2,6.05,3.11,5.92,1.98,13,0.0906,19.1-3.01,9.65-10.1,18.1-19.5,22-2.6,1.3-5.3,2.1-7.9,0.2-9.1-4.2-17.5-11.2-21.3-20.7-2.67-6.4-1.55-14.8,4.11-19.2,4.54-3.45,11.6-3.76,15.9,0.21,2.98,2.63,5.49,6.23,5.9,10.3,0,0.7-0.3,1.9-1.3,1.8z"/>

	<!-- skull -->
	<path stroke="none" fill="#333"
		  d="m167,204c1,5,3,10,3,15,0,2-6,2-6,0,0-5,2-10,3-15zm-14,0c1,5,3,10,3,15,0,2-6,2-6,0,0-5,2-10,3-15zm7-6c-17,0-18,4-18,18,0,13,1,17,10,17v17h16v-17c9,0,10-4,10-17,0-14-1-18-18-18z"/>
</svg>

