<?xml version="1.0" encoding="UTF-8" standalone="no"?>
<svg xmlns="http://www.w3.org/2000/svg" height="64" width="64" version="1.1">

	<title>Google+ Icon</title>
	<desc>Google+ Icon</desc>

	<path stroke="#000" fill="none"
		  d="m11,6,42,0c3,0,5,2,5,5v42c0,3-2,5-5,5h-42c-3,0-5-2-5-5v-42c0-3,2-5,5-5z"/>

	<path stroke="#000" fill="none" fill-rule="evenodd"
		  d="
		  m26,14,12,0.003-3,2-3-0.0012c1-0.000218,3,2,3,6-0.0042,4-2,5-4,7s-2,5-0.0032,6.01c3,1,6,3,6,7-0.0042,4-3,8-10,8.01-9.8,0.0321-12.8-2.97-12.8-6.99-0.0148-3.99,2.98-7.07,13-7.05-2.01-1.98-2-2.92-0.976-4.94-5.06-0.0373-10-4-9.99-9.05,0.0052-5,5-8,10-8.01z
		  m4,7c1.11,3.41,0.308,6.73-1.79,7.42-2.1,0.683-4.7-1.53-5.81-4.94s-0.308-6.73,1.79-7.42c2.1-0.7,4.7,1.5,5.8,4.9z
		  m4,22c-0.0012,3-1.99,5.03-6.99,5.03-4-0.0042-8-2-8-5,0.0012-3,3-5,8-5,4,0.0042,6.99,1.97,6.99,4.97z
		  m9,-27,4,0,0,4,4,0,0,4-4,0,0,4-4,0,0-4-4,0,0-4,4,0z
		  "/>

</svg>

