<?xml version="1.0" encoding="UTF-8" standalone="no"?>
<svg xmlns="http://www.w3.org/2000/svg" version="1.1" height="256" width="256">
	<title>All Icons</title>
	<desc>All Icons</desc>

	<!-- (x,y)=>(x+i*64, y+j*64) -->

	<!-- first row (x+i*64, y) -->
	<!-- left triangle -->
	<path stroke="none" fill="#333"
		  d="m42,44,0,-24,-21,12z"/>

	<!-- right triangle -->
	<path stroke="none" fill="#333"
		  d="m86,44,0,-24,21,12z"/>

	<!-- top triangle -->
	<path stroke="none" fill="#333"
		  d="m172,42,-24,0,12-21z"/>

	<!-- bottom triangle -->
	<path stroke="none" fill="#333"
		  d="m236,22,-24,0,12,21z"/>



	<!-- second row (x+i*64, y+64) -->
	<!-- left arrow -->
	<path stroke="none" fill="#333"
		  d="m45,70c-8,18-8,34,0,52l-25-26z"/>

	<!-- right arrow -->
	<path stroke="none" fill="#333"
		  d="m83,70c8,18,8,34,0,52l25-26z"/>

	<!-- top arrow -->
	<path stroke="none" fill="#333"
		  d="m186,109c-18-8-34-8-52,0l26-25z"/>

	<!-- bottom arrow -->
	<path stroke="none" fill="#333"
		  d="m250,83c-18,8-34,8-52,0l26,25z"/>



	<!-- third row (x+i*64, y+128) -->
	<!-- facebook -->
	<path stroke="#333" fill="none"
		  d="m11,134,42,0c3,0,5,2,5,5v42c0,3-2,5-5,5h-42c-3,0-5-2-5-5v-42c0-3,2-5,5-5z"/>
	<path stroke="none" fill="#333"
		  d="m33,178,0-20-5,0,0-5,5,0,0-4c0-7,5.76-7,11-7h5l-1,5h-4c-3.5,0-4,1-4,4v2h8l-1,5h-7v20z"/>

	<!-- twitter -->
	<path stroke="#333" fill="none"
		  d="m75,134,42,0c3,0,5,2,5,5v42c0,3-2,5-5,5h-42c-3,0-5-2-5-5v-42c0-3,2-5,5-5z"/>
	<path stroke="none" fill="#333"
		  d="m81,146c0-6,10-6,10,0v5h15c6,0,6,8,0,8h-15v3c0,4,2,7,6,7h9c6,0,6,9,0,9h-12c-7,0-13-6-13-13z"/>

	<!-- google -->
	<path stroke="#333" fill="none"
		  d="m139,134,42,0c3,0,5,2,5,5v42c0,3-2,5-5,5h-42c-3,0-5-2-5-5v-42c0-3,2-5,5-5z"/>
	<path stroke="none" fill="#333" fill-rule="evenodd"
		  d="
		  m154,142,12,0.003-3,2-3-0.0012c1-0.000218,3,2,3,6-0.0042,4-2,5-4,7s-2,5-0.0032,6.01c3,1,6,3,6,7-0.0042,4-3,8-10,8.01-9.8,0.0321-12.8-2.97-12.8-6.99-0.0148-3.99,2.98-7.07,13-7.05-2.01-1.98-2-2.92-0.976-4.94-5.06-0.0373-10-4-9.99-9.05,0.0052-5,5-8,10-8.01z
		  m4,7c1.11,3.41,0.308,6.73-1.79,7.42-2.1,0.683-4.7-1.53-5.81-4.94s-0.308-6.73,1.79-7.42c2.1-0.7,4.7,1.5,5.8,4.9z
		  m4,22c-0.0012,3-1.99,5.03-6.99,5.03-4-0.0042-8-2-8-5,0.0012-3,3-5,8-5,4,0.0042,6.99,1.97,6.99,4.97z
		  m9,-27,4,0,0,4,4,0,0,4-4,0,0,4-4,0,0-4-4,0,0-4,4,0z
		  "/>

	<!-- vkontakte -->
	<path stroke="#333" fill="none"
		  d="m203,134,42,0c3,0,5,2,5,5v42c0,3-2,5-5,5h-42c-3,0-5-2-5-5v-42c0-3,2-5,5-5z"/>

	<path stroke="none" fill="#333" fill-rule="evenodd"
		  d="m219,162,8,0c5,0,5,9,0,9h-8zm0-14,6,0c3,0,3,5,0,5h-6zm-10-6,23,0c6,0,6,15,0,15,10,0,10,21,0,21h-23z"/>



	<!-- fourth row (x+i*64, y+192) -->
	<!-- blood -->
	<path stroke="none" fill="#333"
		  d="m32,198c0,25,12,30,12,40,0,6-4,12-12,12-6,0-13-7-13-15-0.2-12.2,6.6-23.3,13-37z"/>

	<!-- heart -->
	<path stroke="none" fill="#333"
		  d="m96,220c-2.4-1.1-1.1-4.7-0.7-6.8,1.7-5.6,5.4-11.6,11.5-13,5.11-1.07,10.9,1.3,13.2,6.05,3.11,5.92,1.98,13,0.0906,19.1-3.01,9.65-10.1,18.1-19.5,22-2.6,1.3-5.3,2.1-7.9,0.2-9.1-4.2-17.5-11.2-21.3-20.7-2.67-6.4-1.55-14.8,4.11-19.2,4.54-3.45,11.6-3.76,15.9,0.21,2.98,2.63,5.49,6.23,5.9,10.3,0,0.7-0.3,1.9-1.3,1.8z"/>

	<!-- skull -->
	<path stroke="none" fill="#333"
		  d="m167,204c1,5,3,10,3,15,0,2-6,2-6,0,0-5,2-10,3-15zm-14,0c1,5,3,10,3,15,0,2-6,2-6,0,0-5,2-10,3-15zm7-6c-17,0-18,4-18,18,0,13,1,17,10,17v17h16v-17c9,0,10-4,10-17,0-14-1-18-18-18z"/>
</svg>

