<?xml version="1.0" encoding="UTF-8" standalone="no"?>
<svg xmlns="http://www.w3.org/2000/svg" version="1.1" height="192" width="256">
	<title>All Icons</title>
	<desc>All Icons</desc>

	<!-- (x,y)=>(x+i*64, y+j*64) -->

	<!-- left triangle -->
	<path stroke="none" fill="#333"
		  d="m42,44,0,-24,-21,12z"/>

	<!-- right triangle -->
	<path stroke="none" fill="#333"
		  d="m86,44,0,-24,21,12z"/>

	<!-- top triangle -->
	<path stroke="none" fill="#333"
		  d="m172,42,-24,0,12-21z"/>

	<!-- bottom triangle -->
	<path stroke="none" fill="#333"
		  d="m236,22,-24,0,12,21z"/>



	<!-- left arrow -->
	<path stroke="none" fill="#333"
		  d="m45,70c-8,18-8,34,0,52l-25-26z"/>

	<!-- right arrow -->
	<path stroke="none" fill="#333"
		  d="m83,70c8,18,8,34,0,52l25-26z"/>

	<!-- top arrow -->
	<path stroke="none" fill="#333"
		  d="m186,109c-18-8-34-8-52,0l26-25z"/>

	<!-- bottom arrow -->
	<path stroke="none" fill="#333"
		  d="m250,83c-18,8-34,8-52,0l26,25z"/>


	<!-- blood -->
	<path stroke="none" fill="#333"
		  d="m32,134c0,25,12,30,12,40,0,6-4,12-12,12-6,0-13-7-13-15-0.2-12.2,6.6-23.3,13-37z"/>

	<!-- heart -->
	<path stroke="none" fill="#333"
		  d="m96,156c-2.4-1.1-1.1-4.7-0.7-6.8,1.7-5.6,5.4-11.6,11.5-13,5.11-1.07,10.9,1.3,13.2,6.05,3.11,5.92,1.98,13,0.0906,19.1-3.01,9.65-10.1,18.1-19.5,22-2.6,1.3-5.3,2.1-7.9,0.2-9.1-4.2-17.5-11.2-21.3-20.7-2.67-6.4-1.55-14.8,4.11-19.2,4.54-3.45,11.6-3.76,15.9,0.21,2.98,2.63,5.49,6.23,5.9,10.3,0,0.7-0.3,1.9-1.3,1.8z"/>

	<!-- skull -->
	<path stroke="none" fill="#333"
		  d="m167,140c1,5,3,10,3,15,0,2-6,2-6,0,0-5,2-10,3-15zm-14,0c1,5,3,10,3,15,0,2-6,2-6,0,0-5,2-10,3-15zm7-6c-17,0-18,4-18,18,0,13,1,17,10,17v17h16v-17c9,0,10-4,10-17,0-14-1-18-18-18z"/>
</svg>

