<?xml version="1.0" encoding="UTF-8" standalone="no"?>
<!--
  ~ Copyright (c) 2008-2013 Ivan Khalopik.
  ~ All rights reserved.
  -->

<svg xmlns="http://www.w3.org/2000/svg" height="64" width="64" version="1.1">
  <title>Google+ Icon</title>
  <desc>Google+ Icon</desc>

  <path stroke="#000" fill="none"
        d="
        m39,6-4,3-4,0c1,0,4,3,4,9s-2,7-5,10-3,7,0,9c4,1,8,4,8,10s-4,11-14,11c-13,0-18-4-18-10s5-10,19-10c-3-3-4-4-2-7-7,0-14-6-14-13s7-12,14-12z
        m-10.6,10.6c1.54,4.87,0.428,9.6-2.49,10.6-2.92,0.975-6.53-2.18-8.07-7.05s-0.428-9.6,2.49-10.6c2.92-0.999,6.53,2.14,8.06,6.99z
        m5.6,31.4c0,4-3,7-10,7-5,0-11-3-11-7s4-7,11-7c6,0,10,3,10,7z
        m12-39,6,0,0,6,6,0,0,6-6,0,0,6-6,0,0-6-6,0,0-6,6,0z"/>

</svg>

